<svg xmlns="http://www.w3.org/2000/svg" viewBox="0 0 400 520" fill="none">
  <defs>
    <linearGradient id="beer" x1="200" y1="150" x2="200" y2="475" gradientUnits="userSpaceOnUse">
      <stop stop-color="#FFD24D"/><stop offset=".45" stop-color="#F2A900"/><stop offset="1" stop-color="#C56B10"/>
    </linearGradient>
    <linearGradient id="foam" x1="200" y1="62" x2="200" y2="155" gradientUnits="userSpaceOnUse">
      <stop stop-color="#FFFFFF"/><stop offset="1" stop-color="#F3E7CC"/>
    </linearGradient>
    <clipPath id="gc"><path d="M95 150 Q104 310 117 464 Q120 475 131 475 L269 475 Q280 475 283 464 Q296 310 305 150 Z"/></clipPath>
  </defs>
  <g clip-path="url(#gc)">
    <rect x="80" y="140" width="245" height="345" fill="url(#beer)"/>
    <rect x="126" y="166" width="24" height="286" rx="12" fill="#FFFFFF" opacity=".18"/>
  </g>
  <path d="M88 152 C78 118 96 96 120 92 C118 74 150 66 176 76 C190 60 220 62 234 78 C258 66 288 76 300 98 C318 100 316 128 312 152 C260 158 140 158 88 152 Z" fill="url(#foam)" stroke="#130A02" stroke-width="16" stroke-linejoin="round"/>
  <path d="M95 150 Q104 310 117 464 Q120 475 131 475 L269 475 Q280 475 283 464 Q296 310 305 150" fill="none" stroke="#130A02" stroke-width="18" stroke-linejoin="round"/>
</svg>
