<svg xmlns="http://www.w3.org/2000/svg" width="1024" height="1024" viewBox="0 0 1024 1024">
  <defs>
    <linearGradient id="bg" x1="0" y1="0" x2="1024" y2="1024" gradientUnits="userSpaceOnUse">
      <stop stop-color="#241608"/>
      <stop offset="1" stop-color="#0E0802"/>
    </linearGradient>
    <linearGradient id="beer" x1="200" y1="150" x2="200" y2="475" gradientUnits="userSpaceOnUse">
      <stop stop-color="#FFD24D"/>
      <stop offset=".45" stop-color="#F2A900"/>
      <stop offset="1" stop-color="#C56B10"/>
    </linearGradient>
    <linearGradient id="foam" x1="200" y1="62" x2="200" y2="155" gradientUnits="userSpaceOnUse">
      <stop stop-color="#FFFFFF"/>
      <stop offset="1" stop-color="#F3E7CC"/>
    </linearGradient>
    <clipPath id="glassClip">
      <path d="M95 150 Q104 310 117 464 Q120 475 131 475 L269 475 Q280 475 283 464 Q296 310 305 150 Z"/>
    </clipPath>
    <radialGradient id="glow" cx="50%" cy="50%" r="50%">
      <stop offset="0" stop-color="#F2A900" stop-opacity=".20"/>
      <stop offset=".55" stop-color="#F2A900" stop-opacity=".08"/>
      <stop offset="1" stop-color="#F2A900" stop-opacity="0"/>
    </radialGradient>
    <clipPath id="tile">
      <rect width="1024" height="1024" rx="228"/>
    </clipPath>
  </defs>

  <rect width="1024" height="1024" rx="228" fill="url(#bg)"/>

  <g clip-path="url(#tile)">
    <!-- Glow riding behind the foam, upper right of the tilt -->
    <ellipse cx="580" cy="500" rx="560" ry="520" fill="url(#glow)"/>

    <!-- The mascot pour: same canonical glass, zoomed + tilted for the cheers,
         base bleeding out of the bottom-left corner -->
    <g transform="translate(64,-210) rotate(20) scale(3.72,3.35)">
      <path d="M95 150 Q104 310 117 464 Q120 475 131 475 L269 475 Q280 475 283 464 Q296 310 305 150 Z" fill="#FBF6EC" fill-opacity=".16"/>
      <g clip-path="url(#glassClip)">
        <rect x="80" y="140" width="245" height="345" fill="url(#beer)"/>
        <rect x="126" y="166" width="24" height="286" rx="12" fill="#FFFFFF" opacity=".18"/>
      </g>
      <path d="M88 152 C78 118 96 96 120 92 C118 74 150 66 176 76 C190 60 220 62 234 78 C258 66 288 76 300 98 C318 100 316 128 312 152 C260 158 140 158 88 152 Z"
            fill="url(#foam)" stroke="#130A02" stroke-width="16" stroke-linejoin="round" stroke-linecap="round"/>
      <path d="M95 150 Q104 310 117 464 Q120 475 131 475 L269 475 Q280 475 283 464 Q296 310 305 150"
            fill="none" stroke="#130A02" stroke-width="18" stroke-linejoin="round" stroke-linecap="round"/>
    </g>
  </g>

  <rect width="1024" height="1024" rx="228" fill="none" stroke="#F2A900" stroke-opacity=".14" stroke-width="4"/>
</svg>
